<!--?xml version="1.0" encoding="utf-8"?-->
<!-- Generator: Adobe Illustrator 18.1.1, SVG Export Plug-In . SVG Version: 6.00 Build 0)  -->

<svg version="1.1" id="_x32_" xmlns="http://www.w3.org/2000/svg" xmlns:xlink="http://www.w3.org/1999/xlink" x="0px" y="0px" viewBox="0 0 512 512" style="width: 48px; height: 48px; opacity: 1;" xml:space="preserve">
<style type="text/css">
	.st0{fill:#4B4B4B;}
</style>
<g>
	<path class="st0" d="M378.413,0H208.297h-13.183L185.8,9.314L57.02,138.102l-9.314,9.314v13.176v265.514
		c0,47.36,38.527,85.895,85.895,85.895h244.812c47.353,0,85.881-38.535,85.881-85.895V85.896C464.294,38.528,425.766,0,378.413,0z
		 M432.497,426.105c0,29.877-24.214,54.091-54.084,54.091H133.601c-29.884,0-54.098-24.214-54.098-54.091V160.591h83.717
		c24.885,0,45.077-20.178,45.077-45.07V31.804h170.116c29.87,0,54.084,24.214,54.084,54.092V426.105z" style="fill: rgb(75, 75, 75);"></path>
	<path class="st0" d="M171.193,302.61l13.853-18.07c1.494-2.032,2.318-4.211,2.318-6.243c0-4.482-3.533-8.288-8.421-8.288
		c-2.863,0-5.712,1.355-7.89,4.211l-10.725,14.125h-0.139l-10.725-14.125c-2.178-2.856-5.027-4.211-7.876-4.211
		c-4.888,0-8.42,3.806-8.42,8.288c0,2.032,0.81,4.211,2.304,6.243l13.853,18.07l-15.487,20.235c-1.494,2.038-2.304,4.21-2.304,6.249
		c0,4.483,3.533,8.288,8.42,8.288c2.848,0,5.711-1.361,7.876-4.21l12.358-16.304h0.139l12.358,16.304
		c2.179,2.849,5.027,4.21,7.876,4.21c4.888,0,8.42-3.805,8.42-8.288c0-2.039-0.81-4.21-2.304-6.249L171.193,302.61z" style="fill: rgb(75, 75, 75);"></path>
	<path class="st0" d="M226.898,320.806c-2.989-0.538-4.344-2.172-4.344-5.97v-61.394c0-6.25-4.078-10.055-9.509-10.055
		c-5.572,0-9.51,3.805-9.51,10.055v63.021c0,13.448,5.166,20.919,20.235,20.919h0.824c6.926,0,9.914-3.673,9.914-8.288
		C234.508,324.883,232.33,321.762,226.898,320.806z" style="fill: rgb(75, 75, 75);"></path>
	<path class="st0" d="M277.98,295.544l-7.206-0.817c-7.471-0.81-9.091-2.444-9.091-5.432c0-3.121,2.444-5.16,8.281-5.16
		c4.748,0,9.23,0.95,13.308,2.856c2.583,1.222,4.078,1.627,5.432,1.627c4.482,0,7.471-3.261,7.471-7.471
		c0-3.261-1.899-5.565-5.572-7.471c-5.558-2.849-12.624-4.343-19.97-4.343c-17.246,0-27.161,8.281-27.161,21.184
		c0,11.409,7.192,18.475,21.464,20.102l7.191,0.817c7.75,0.816,9.51,2.444,9.51,5.572c0,3.666-3.254,6.11-10.18,6.11
		c-6.382,0-11.409-2.039-16.171-4.756c-2.165-1.222-3.799-1.766-5.572-1.766c-4.344,0-7.876,3.4-7.876,7.61
		c0,3.121,1.355,5.565,4.622,7.604c5.432,3.394,13.727,6.249,24.047,6.249c18.6,0,29.339-9.098,29.339-22.546
		C299.848,304.509,293.467,297.31,277.98,295.544z" style="fill: rgb(75, 75, 75);"></path>
	<path class="st0" d="M351.056,302.61l13.853-18.07c1.494-2.032,2.318-4.211,2.318-6.243c0-4.482-3.533-8.288-8.42-8.288
		c-2.862,0-5.712,1.355-7.89,4.211l-10.725,14.125h-0.14l-10.725-14.125c-2.178-2.856-5.027-4.211-7.876-4.211
		c-4.888,0-8.421,3.806-8.421,8.288c0,2.032,0.81,4.211,2.304,6.243l13.852,18.07l-15.486,20.235
		c-1.494,2.038-2.304,4.21-2.304,6.249c0,4.483,3.534,8.288,8.42,8.288c2.849,0,5.712-1.361,7.876-4.21l12.358-16.304h0.14
		l12.358,16.304c2.179,2.849,5.027,4.21,7.876,4.21c4.888,0,8.421-3.805,8.421-8.288c0-2.039-0.81-4.21-2.304-6.249L351.056,302.61z
		" style="fill: rgb(75, 75, 75);"></path>
</g>
</svg>
